<mxfile host="app.diagrams.net" agent="Mozilla/5.0 (Windows NT 10.0; Win64; x64) AppleWebKit/537.36 (KHTML, like Gecko) Chrome/141.0.0.0 Safari/537.36" version="28.2.5">
  <diagram id="shorten-seq" name="Shorten Sequence">
    <mxGraphModel dx="1281" dy="527" grid="1" gridSize="10" guides="1" tooltips="1" connect="1" arrows="1" fold="1" page="1" pageScale="1" pageWidth="1100" pageHeight="850" math="0" shadow="0">
      <root>
        <mxCell id="0" />
        <mxCell id="1" parent="0" />
        <mxCell id="c1" value="Client" style="rounded=1;whiteSpace=wrap;html=1;fillColor=#dae8fc;strokeColor=#6c8ebf" parent="1" vertex="1">
          <mxGeometry x="30" y="360" width="160" height="60" as="geometry" />
        </mxCell>
        <mxCell id="c2" value="LinkController" style="rounded=1;whiteSpace=wrap;html=1;fillColor=#fff2cc;strokeColor=#d6b656" parent="1" vertex="1">
          <mxGeometry x="320" y="250" width="180" height="60" as="geometry" />
        </mxCell>
        <mxCell id="c3" value="UrlShortenerService" style="rounded=1;whiteSpace=wrap;html=1;fillColor=#d5e8d4;strokeColor=#82b366" parent="1" vertex="1">
          <mxGeometry x="610" y="150" width="220" height="60" as="geometry" />
        </mxCell>
        <mxCell id="c4" value="ShortUrlRepository" style="rounded=1;whiteSpace=wrap;html=1;fillColor=#e1d5e7;strokeColor=#9673a6" parent="1" vertex="1">
          <mxGeometry x="820" y="40" width="220" height="60" as="geometry" />
        </mxCell>
        <mxCell id="m1" value="POST /shorten (ShortenRequest)" style="edgeStyle=orthogonalEdgeStyle;html=1;endArrow=block;strokeColor=#6c8ebf" parent="1" source="c1" target="c2" edge="1">
          <mxGeometry y="-20" relative="1" as="geometry">
            <mxPoint as="offset" />
          </mxGeometry>
        </mxCell>
        <mxCell id="m2" value="validate @Valid" style="edgeStyle=orthogonalEdgeStyle;html=1;endArrow=block;strokeColor=#d6b656" parent="1" source="c2" target="c2" edge="1">
          <mxGeometry x="-0.3333" y="32" relative="1" as="geometry">
            <mxPoint x="-22" y="-30" as="offset" />
          </mxGeometry>
        </mxCell>
        <mxCell id="m3" value="shorten(url, code)" style="edgeStyle=orthogonalEdgeStyle;html=1;endArrow=block;strokeColor=#82b366" parent="1" source="c2" target="c3" edge="1">
          <mxGeometry x="0.6552" y="-90" relative="1" as="geometry">
            <mxPoint as="offset" />
          </mxGeometry>
        </mxCell>
        <mxCell id="m4" value="if custom: existsByCode | cache.containsCode" style="edgeStyle=orthogonalEdgeStyle;html=1;endArrow=block;strokeColor=#9673a6" parent="1" source="c3" target="c4" edge="1">
          <mxGeometry x="-0.8077" y="46" relative="1" as="geometry">
            <mxPoint x="-30" y="11" as="offset" />
          </mxGeometry>
        </mxCell>
        <mxCell id="m5" value="duplicate âžœ DuplicateCodeException (409)" style="edgeStyle=orthogonalEdgeStyle;html=1;endArrow=block;strokeColor=#b85450;dashed=1" parent="1" source="c3" target="c2" edge="1">
          <mxGeometry x="0.037" y="-30" relative="1" as="geometry">
            <mxPoint as="offset" />
          </mxGeometry>
        </mxCell>
        <mxCell id="m6" value="saveAndFlush(ShortUrl)" style="edgeStyle=orthogonalEdgeStyle;html=1;endArrow=block;strokeColor=#9673a6;entryX=0.665;entryY=0.967;entryDx=0;entryDy=0;entryPerimeter=0;" parent="1" edge="1">
          <mxGeometry x="0.4179" y="-30" relative="1" as="geometry">
            <mxPoint x="830" y="181.98" as="sourcePoint" />
            <mxPoint x="966.3000000000002" y="99.99999999999999" as="targetPoint" />
            <Array as="points">
              <mxPoint x="970" y="181.98" />
              <mxPoint x="970" y="131.98" />
              <mxPoint x="966" y="131.98" />
            </Array>
            <mxPoint as="offset" />
          </mxGeometry>
        </mxCell>
        <mxCell id="m7" value="build fullShortUrl (ServletUriComponentsBuilder)" style="edgeStyle=orthogonalEdgeStyle;html=1;endArrow=block;strokeColor=#d6b656" parent="1" source="c2" target="c2" edge="1">
          <mxGeometry x="0.3333" y="136" relative="1" as="geometry">
            <mxPoint x="130" y="-96" as="offset" />
          </mxGeometry>
        </mxCell>
        <mxCell id="m8" value="201 Created (ShortenResponse) + Location: /{code}" style="edgeStyle=orthogonalEdgeStyle;html=1;endArrow=block;strokeColor=#6c8ebf" parent="1" source="c2" target="c1" edge="1">
          <mxGeometry x="0.1724" y="-40" relative="1" as="geometry">
            <mxPoint as="offset" />
          </mxGeometry>
        </mxCell>
      </root>
    </mxGraphModel>
  </diagram>
</mxfile>
